<svg width="483" height="24" xmlns="http://www.w3.org/2000/svg">
  <rect x="0" y="0" width="24" height="24" rx="3" fill="#F8F8F2" stroke="#ffffff" stroke-opacity="0.15" stroke-width="0.5"/>
  <rect x="27" y="0" width="24" height="24" rx="3" fill="#49483E" stroke="#ffffff" stroke-opacity="0.15" stroke-width="0.5"/>
  <rect x="54" y="0" width="24" height="24" rx="3" fill="#66D9E8" stroke="#ffffff" stroke-opacity="0.15" stroke-width="0.5"/>
  <rect x="81" y="0" width="24" height="24" rx="3" fill="#1A1B16" stroke="#ffffff" stroke-opacity="0.15" stroke-width="0.5"/>
  <rect x="108" y="0" width="24" height="24" rx="3" fill="#75715E" stroke="#ffffff" stroke-opacity="0.15" stroke-width="0.5"/>
  <rect x="135" y="0" width="24" height="24" rx="3" fill="#272822" stroke="#ffffff" stroke-opacity="0.15" stroke-width="0.5"/>
  <rect x="162" y="0" width="24" height="24" rx="3" fill="#000000" stroke="#ffffff" stroke-opacity="0.15" stroke-width="0.5"/>
  <rect x="189" y="0" width="24" height="24" rx="3" fill="#CFCFC2" stroke="#ffffff" stroke-opacity="0.15" stroke-width="0.5"/>
  <rect x="216" y="0" width="24" height="24" rx="3" fill="#A6E22E" stroke="#ffffff" stroke-opacity="0.15" stroke-width="0.5"/>
  <rect x="243" y="0" width="24" height="24" rx="3" fill="#1E1F1A" stroke="#ffffff" stroke-opacity="0.15" stroke-width="0.5"/>
  <rect x="270" y="0" width="24" height="24" rx="3" fill="#F92672" stroke="#ffffff" stroke-opacity="0.15" stroke-width="0.5"/>
  <rect x="297" y="0" width="24" height="24" rx="3" fill="#E6DB74" stroke="#ffffff" stroke-opacity="0.15" stroke-width="0.5"/>
  <rect x="324" y="0" width="24" height="24" rx="3" fill="#75715E" stroke="#ffffff" stroke-opacity="0.15" stroke-width="0.5"/>
  <rect x="351" y="0" width="24" height="24" rx="3" fill="#66D9E8" stroke="#ffffff" stroke-opacity="0.15" stroke-width="0.5"/>
  <rect x="378" y="0" width="24" height="24" rx="3" fill="#3D3C24" stroke="#ffffff" stroke-opacity="0.15" stroke-width="0.5"/>
  <rect x="405" y="0" width="24" height="24" rx="3" fill="#FD971F" stroke="#ffffff" stroke-opacity="0.15" stroke-width="0.5"/>
  <rect x="432" y="0" width="24" height="24" rx="3" fill="#1A1B16" stroke="#ffffff" stroke-opacity="0.15" stroke-width="0.5"/>
  <rect x="459" y="0" width="24" height="24" rx="3" fill="#000000" stroke="#ffffff" stroke-opacity="0.15" stroke-width="0.5"/>
</svg>
